<svg width="14" height="14" viewBox="0 0 14 14" fill="none" xmlns="http://www.w3.org/2000/svg">
<path d="M7.66666 1.75049H13" stroke="#0A0A0A" stroke-width="1.33333" stroke-linecap="round" stroke-linejoin="round"/>
<path d="M7.66666 4.75H11" stroke="#0A0A0A" stroke-width="1.33333" stroke-linecap="round" stroke-linejoin="round"/>
<path d="M7.66666 9.25H13" stroke="#0A0A0A" stroke-width="1.33333" stroke-linecap="round" stroke-linejoin="round"/>
<path d="M7.66666 12.2495H11" stroke="#0A0A0A" stroke-width="1.33333" stroke-linecap="round" stroke-linejoin="round"/>
<path d="M1 1.74998C1 1.55107 1.07024 1.36031 1.19526 1.21966C1.32029 1.07902 1.48986 1 1.66667 1H4.33333C4.51014 1 4.67971 1.07902 4.80474 1.21966C4.92976 1.36031 5 1.55107 5 1.74998V4.74989C5 4.94879 4.92976 5.13955 4.80474 5.2802C4.67971 5.42085 4.51014 5.49986 4.33333 5.49986H1.66667C1.48986 5.49986 1.32029 5.42085 1.19526 5.2802C1.07024 5.13955 1 4.94879 1 4.74989V1.74998Z" stroke="#0A0A0A" stroke-width="1.33333" stroke-linecap="round" stroke-linejoin="round"/>
<path d="M1 9.24998C1 9.05107 1.07024 8.86031 1.19526 8.71966C1.32029 8.57902 1.48986 8.5 1.66667 8.5H4.33333C4.51014 8.5 4.67971 8.57902 4.80474 8.71966C4.92976 8.86031 5 9.05107 5 9.24998V12.2499C5 12.4488 4.92976 12.6396 4.80474 12.7802C4.67971 12.9208 4.51014 12.9999 4.33333 12.9999H1.66667C1.48986 12.9999 1.32029 12.9208 1.19526 12.7802C1.07024 12.6396 1 12.4488 1 12.2499V9.24998Z" stroke="#0A0A0A" stroke-width="1.33333" stroke-linecap="round" stroke-linejoin="round"/>
</svg>
