<svg width="14" height="14" viewBox="0 0 14 14" fill="none" xmlns="http://www.w3.org/2000/svg">
<path d="M2.33325 3.66667C2.33325 4.37391 2.6142 5.05219 3.1143 5.55229C3.6144 6.05238 4.29267 6.33333 4.99992 6.33333C5.70716 6.33333 6.38544 6.05238 6.88554 5.55229C7.38563 5.05219 7.66659 4.37391 7.66659 3.66667C7.66659 2.95942 7.38563 2.28115 6.88554 1.78105C6.38544 1.28095 5.70716 1 4.99992 1C4.29267 1 3.6144 1.28095 3.1143 1.78105C2.6142 2.28115 2.33325 2.95942 2.33325 3.66667Z" stroke="#0A0A0A" stroke-width="1.33333" stroke-linecap="round" stroke-linejoin="round"/>
<path d="M1 13V11.6667C1 10.9594 1.28095 10.2811 1.78105 9.78105C2.28115 9.28095 2.95942 9 3.66667 9H6.33333C7.04058 9 7.71885 9.28095 8.21895 9.78105C8.71905 10.2811 9 10.9594 9 11.6667V13" stroke="#0A0A0A" stroke-width="1.33333" stroke-linecap="round" stroke-linejoin="round"/>
<path d="M9.66675 1.08643C10.2404 1.23329 10.7488 1.56689 11.1118 2.03463C11.4749 2.50237 11.672 3.07765 11.672 3.66976C11.672 4.26187 11.4749 4.83715 11.1118 5.30489C10.7488 5.77262 10.2404 6.10623 9.66675 6.25309" stroke="#0A0A0A" stroke-width="1.33333" stroke-linecap="round" stroke-linejoin="round"/>
<path d="M13 13.0001V11.6668C12.9966 11.0782 12.7986 10.5073 12.4368 10.043C12.0751 9.57877 11.5699 9.24723 11 9.1001" stroke="#0A0A0A" stroke-width="1.33333" stroke-linecap="round" stroke-linejoin="round"/>
</svg>
